Normalized EMG Linear Envelopes
nRows=214
nColumns=4

endheader
time	 med_gas_r	  soleus_r	 tib_ant_r	
0	  0.021481	  0.016711	 -0.437202	
0.0332661	  0.041336	  0.123159	 -0.240684	
0.0665323	  0.057995	  0.214114	 -0.067124	
0.0997984	  0.070669	  0.284964	  0.072924	
0.133065	  0.079754	  0.336418	  0.176043	
0.166331	  0.086016	  0.370342	  0.245476	
0.199597	  0.089937	  0.389221	  0.289369	
0.232863	  0.092235	  0.397757	  0.313685	
0.266129	  0.093727	  0.401068	  0.322033	
0.299395	  0.095181	  0.403153	  0.321437	
0.332661	  0.097064	  0.404349	  0.316909	
0.365927	  0.099353	  0.403108	  0.309199	
0.399194	  0.101862	  0.397297	  0.299133	
0.43246	  0.104065	  0.386119	  0.291838	
0.465726	  0.106245	  0.372377	  0.288477	
0.498992	  0.108656	  0.359615	  0.286208	
0.532258	  0.110625	  0.349439	  0.283467	
0.565524	  0.112095	  0.341639	  0.284107	
0.59879	  0.113846	  0.335560	  0.289105	
0.632056	  0.115958	  0.331149	  0.295166	
0.665323	  0.116956	  0.328551	  0.299667	
0.698589	  0.115051	  0.327453	  0.302724	
0.731855	  0.110641	  0.328257	  0.303699	
0.765121	  0.105508	  0.331061	  0.301958	
0.798387	  0.100580	  0.335563	  0.299231	
0.831653	  0.096040	  0.340661	  0.297421	
0.864919	  0.092381	  0.344529	  0.296383	
0.898185	  0.090131	  0.347099	  0.293438	
0.931452	  0.089462	  0.350398	  0.288318	
0.964718	  0.090011	  0.355176	  0.281877	
0.997984	  0.091408	  0.359764	  0.274632	
1.03125	  0.093434	  0.362399	  0.265060	
1.06452	  0.095857	  0.363556	  0.256388	
1.09778	  0.098325	  0.365027	  0.251942	
1.13105	  0.100357	  0.367035	  0.250822	
1.16431	  0.101915	  0.368536	  0.248555	
1.19758	  0.103471	  0.368232	  0.245371	
1.23085	  0.105308	  0.365697	  0.244504	
1.26411	  0.107298	  0.362126	  0.246093	
1.29738	  0.109900	  0.359394	  0.247013	
1.33065	  0.113398	  0.357969	  0.247906	
1.36391	  0.116993	  0.357696	  0.251287	
1.39718	  0.119039	  0.358411	  0.256645	
1.43044	  0.118745	  0.361284	  0.260841	
1.46371	  0.116475	  0.366122	  0.264273	
1.49698	  0.113168	  0.371327	  0.268640	
1.53024	  0.109281	  0.375758	  0.274347	
1.56351	  0.105340	  0.378489	  0.279706	
1.59677	  0.102024	  0.377882	  0.284344	
1.63004	  0.099148	  0.374043	  0.289216	
1.66331	  0.096094	  0.368484	  0.294847	
1.69657	  0.093198	  0.362317	  0.298765	
1.72984	  0.091391	  0.356057	  0.299189	
1.7631	  0.091112	  0.349285	  0.297132	
1.79637	  0.092242	  0.341755	  0.293384	
1.82964	  0.094355	  0.333108	  0.286762	
1.8629	  0.096689	  0.323380	  0.279968	
1.89617	  0.098800	  0.313404	  0.276906	
1.92944	  0.100437	  0.304831	  0.277479	
1.9627	  0.100804	  0.299625	  0.279237	
1.99597	  0.099695	  0.298769	  0.284089	
2.02923	  0.097087	  0.301485	  0.292321	
2.0625	  0.093690	  0.306096	  0.300789	
2.09577	  0.090117	  0.309906	  0.305207	
2.12903	  0.087181	  0.312339	  0.306836	
2.1623	  0.085448	  0.314754	  0.306910	
2.19556	  0.084741	  0.318676	  0.303448	
2.22883	  0.084606	  0.324935	  0.296959	
2.2621	  0.084777	  0.333327	  0.291632	
2.29536	  0.085284	  0.342964	  0.288304	
2.32863	  0.085928	  0.351650	  0.284660	
2.3619	  0.086242	  0.356972	  0.280910	
2.39516	  0.086165	  0.358371	  0.279076	
2.42843	  0.086238	  0.355932	  0.277908	
2.46169	  0.086597	  0.351643	  0.274079	
2.49496	  0.086444	  0.347389	  0.269751	
2.52823	  0.084912	  0.343985	  0.267459	
2.56149	  0.082605	  0.341288	  0.266172	
2.59476	  0.080381	  0.338996	  0.263118	
2.62802	  0.078801	  0.337983	  0.259747	
2.66129	  0.078116	  0.338583	  0.257539	
2.69456	  0.078304	  0.339730	  0.255606	
2.72782	  0.079562	  0.341206	  0.254059	
2.76109	  0.081779	  0.342603	  0.255427	
2.79435	  0.084837	  0.342033	  0.259721	
2.82762	  0.088581	  0.336949	  0.263838	
2.86089	  0.092490	  0.326929	  0.267361	
2.89415	  0.096321	  0.314334	  0.273690	
2.92742	  0.099829	  0.303361	  0.281711	
2.96069	  0.102767	  0.296422	  0.287589	
2.99395	  0.104307	  0.293889	  0.289873	
3.02722	  0.104270	  0.295303	  0.290989	
3.06048	  0.103345	  0.299937	  0.290519	
3.09375	  0.102372	  0.306760	  0.287628	
3.12702	  0.101677	  0.314415	  0.283457	
3.16028	  0.101507	  0.321437	  0.281169	
3.19355	  0.101624	  0.326908	  0.281131	
3.22681	  0.101708	  0.330761	  0.282031	
3.26008	  0.102006	  0.333100	  0.281994	
3.29335	  0.102477	  0.334805	  0.282699	
3.32661	  0.103380	  0.337155	  0.283779	
3.35988	  0.105283	  0.340432	  0.283178	
3.39315	  0.107702	  0.342922	  0.280540	
3.42641	  0.109111	  0.344556	  0.278098	
3.45968	  0.108364	  0.345802	  0.277572	
3.49294	  0.106272	  0.346883	  0.276893	
3.52621	  0.103665	  0.349086	  0.275235	
3.55948	  0.100824	  0.351574	  0.274700	
3.59274	  0.098243	  0.352726	  0.274801	
3.62601	  0.096351	  0.351949	  0.271783	
3.65927	  0.095689	  0.350130	  0.265428	
3.69254	  0.095769	  0.349054	  0.258577	
3.72581	  0.095780	  0.350527	  0.252073	
3.75907	  0.095367	  0.354568	  0.245449	
3.79234	  0.095162	  0.359340	  0.241703	
3.8256	  0.095373	  0.362144	  0.241679	
3.85887	  0.095662	  0.361902	  0.243830	
3.89214	  0.096238	  0.358352	  0.245592	
3.9254	  0.097482	  0.352037	  0.247865	
3.95867	  0.099133	  0.345262	  0.251235	
3.99194	  0.100655	  0.340673	  0.255747	
4.0252	  0.101748	  0.340971	  0.259278	
4.05847	  0.102751	  0.346595	  0.263782	
4.09173	  0.103817	  0.356917	  0.271685	
4.125	  0.104495	  0.369051	  0.280657	
4.15827	  0.104641	  0.380849	  0.285166	
4.19153	  0.105020	  0.392358	  0.284080	
4.2248	  0.106036	  0.403033	  0.282126	
4.25806	  0.107793	  0.410889	  0.281473	
4.29133	  0.110550	  0.416578	  0.279826	
4.3246	  0.113811	  0.421056	  0.275438	
4.35786	  0.116823	  0.423355	  0.271935	
4.39113	  0.119188	  0.422189	  0.270876	
4.4244	  0.119861	  0.416570	  0.271168	
4.45766	  0.118663	  0.407441	  0.270902	
4.49093	  0.116621	  0.396426	  0.270726	
4.52419	  0.114393	  0.384928	  0.272201	
4.55746	  0.112315	  0.373011	  0.274812	
4.59073	  0.110192	  0.361311	  0.276796	
4.62399	  0.108360	  0.350428	  0.279304	
4.65726	  0.106715	  0.340108	  0.283542	
4.69052	  0.104837	  0.330121	  0.287970	
4.72379	  0.102454	  0.322403	  0.288727	
4.75706	  0.099379	  0.318131	  0.283886	
4.79032	  0.096577	  0.316970	  0.275771	
4.82359	  0.094884	  0.317270	  0.267655	
4.85685	  0.094968	  0.318681	  0.260165	
4.89012	  0.097443	  0.321736	  0.252365	
4.92339	  0.101982	  0.324527	  0.247056	
4.95665	  0.107818	  0.323859	  0.244904	
4.98992	  0.113942	  0.318405	  0.244201	
5.02319	  0.119164	  0.309894	  0.241659	
5.05645	  0.122547	  0.301399	  0.237887	
5.08972	  0.123525	  0.295248	  0.237543	
5.12298	  0.121329	  0.293201	  0.241742	
5.15625	  0.116028	  0.295285	  0.248305	
5.18952	  0.109333	  0.300178	  0.252940	
5.22278	  0.102827	  0.306567	  0.251870	
5.25605	  0.096933	  0.313175	  0.246476	
5.28931	  0.091207	  0.319351	  0.240250	
5.32258	  0.086084	  0.324924	  0.235954	
5.35585	  0.082654	  0.330419	  0.233598	
5.38911	  0.081095	  0.334580	  0.232007	
5.42238	  0.081100	  0.334971	  0.232601	
5.45565	  0.081832	  0.331156	  0.235676	
5.48891	  0.082704	  0.324609	  0.238776	
5.52218	  0.083884	  0.316359	  0.240048	
5.55544	  0.085303	  0.306801	  0.242743	
5.58871	  0.086384	  0.297293	  0.249422	
5.62198	  0.086400	  0.288762	  0.259479	
5.65524	  0.085909	  0.283247	  0.268808	
5.68851	  0.086235	  0.282266	  0.273368	
5.72177	  0.087985	  0.286481	  0.275749	
5.75504	  0.090622	  0.295849	  0.279236	
5.78831	  0.093616	  0.310245	  0.283495	
5.82157	  0.097116	  0.328013	  0.284825	
5.85484	  0.101409	  0.346190	  0.280750	
5.8881	  0.106176	  0.363725	  0.274386	
5.92137	  0.110101	  0.378400	  0.268290	
5.95464	  0.111522	  0.386867	  0.263301	
5.9879	  0.110527	  0.387918	  0.256446	
6.02117	  0.108436	  0.382502	  0.246851	
6.05444	  0.106795	  0.372925	  0.238609	
6.0877	  0.106398	  0.361676	  0.234326	
6.12097	  0.107585	  0.351428	  0.234309	
6.15423	  0.110505	  0.344489	  0.237923	
6.1875	  0.114552	  0.341369	  0.245783	
6.22077	  0.118472	  0.342965	  0.257879	
6.25403	  0.119930	  0.349189	  0.270668	
6.2873	  0.117070	  0.357962	  0.279854	
6.32056	  0.110626	  0.365956	  0.282058	
6.35383	  0.102471	  0.371094	  0.278550	
6.3871	  0.094760	  0.374420	  0.273150	
6.42036	  0.088548	  0.378393	  0.267298	
6.45363	  0.084514	  0.384364	  0.260773	
6.4869	  0.082752	  0.392040	  0.251558	
6.52016	  0.082492	  0.401133	  0.241931	
6.55343	  0.083173	  0.411934	  0.235275	
6.58669	  0.084480	  0.423826	  0.232525	
6.61996	  0.086381	  0.433821	  0.230501	
6.65323	  0.088464	  0.438286	  0.225847	
6.68649	  0.090112	  0.436945	  0.221388	
6.71976	  0.091494	  0.430687	  0.219666	
6.75302	  0.092998	  0.421922	  0.220081	
6.78629	  0.094132	  0.413107	  0.218962	
6.81956	  0.094226	  0.405851	  0.217202	
6.85282	  0.093690	  0.399489	  0.217911	
6.88609	  0.093401	  0.392886	  0.221265	
6.91935	  0.093311	  0.384693	  0.223099	
6.95262	  0.092879	  0.374139	  0.219716	
6.98589	  0.091574	  0.362804	  0.215085	
7.01915	  0.090138	  0.352930	  0.212947	
7.05242	  0.089570	  0.345194	  0.213064	
7.08569	  0.090081	  0.339256	  0.211995	
